<svg xmlns="http://www.w3.org/2000/svg" xmlns:xlink="http://www.w3.org/1999/xlink" fill="none" version="1.1" width="16" height="16" viewBox="0 0 16 16"><defs><clipPath id="master_svg0_3_07294"><rect x="0" y="0" width="16" height="16" rx="0"/></clipPath></defs><g clip-path="url(#master_svg0_3_07294)"><g transform="matrix(1,0,0,-1,0,32.1527099609375)"><g><path d="M1.5,23.80885498046875Q1.5625,26.55885498046875,3.40625,28.40265498046875Q5.25,30.24635498046875,8,30.30885498046875Q9.5,30.30885498046875,10.75,29.68385498046875Q12.0312,29.09015498046875,12.9375,28.02765498046875Q13.4375,27.55885498046875,14,27.96515498046875Q14.4688,28.46515498046875,14.0625,29.02765498046875Q12.9688,30.30885498046875,11.4062,31.05885498046875Q9.84375,31.80885498046875,8,31.80885498046875Q5.75,31.77765498046875,3.96875,30.71515498046875Q2.15625,29.65265498046875,1.09375,27.84015498046875Q0.03125,26.05885498046875,0,23.80885498046875L0,22.55885498046875Q0.0625,21.87135498046875,0.75,21.80885498046875Q1.4375,21.87135498046875,1.5,22.55885498046875L1.5,23.80885498046875ZM15.8438,25.46510498046875Q15.625,26.12135498046875,14.9375,26.02760498046875Q14.2812,25.84010498046875,14.375,25.15260498046875Q14.5,24.49635498046875,14.5,23.80885498046875L14.5,22.55885498046875Q14.5625,21.87135498046875,15.25,21.80885498046875Q15.9375,21.87135498046875,16,22.55885498046875L16,23.80885498046875Q16,24.65260498046875,15.8438,25.46510498046875ZM8,29.30885498046875Q7.09375,29.30885498046875,6.3125,29.02765498046875Q5.9375,28.90265498046875,5.875,28.55885498046875Q5.78125,28.21515498046875,6.03125,27.90265498046875Q6.40625,27.52765498046875,6.96875,27.68385498046875Q7.46875,27.80885498046875,8,27.80885498046875Q9.6875,27.77765498046875,10.8438,26.65265498046875Q11.9688,25.49635498046875,12,23.80885498046875L12,23.02760498046875Q12,21.84010498046875,11.875,20.68385498046875Q11.8438,20.30885498046875,12.0625,20.05885498046875Q12.25,19.80885498046875,12.625,19.80885498046875Q13.2188,19.84010498046875,13.3438,20.43385498046875Q13.5,21.71510498046875,13.5,23.02760498046875L13.5,23.80885498046875Q13.4375,26.15265498046875,11.9062,27.68385498046875Q10.3438,29.24635498046875,8,29.30885498046875ZM4.71875,27.15265498046875Q4.46875,27.40265498046875,4.1875,27.43385498046875Q3.875,27.43385498046875,3.65625,27.18385498046875Q2.53125,25.74635498046875,2.5,23.80885498046875L2.5,23.02760498046875Q2.5,21.90260498046875,2.25,20.77760498046875Q2.1875,20.40260498046875,2.40625,20.12135498046875Q2.625,19.80885498046875,3,19.80885498046875Q3.53125,19.84010498046875,3.6875,20.34010498046875Q4,21.68385498046875,4,23.02760498046875L4,23.80885498046875Q4.03125,25.09010498046875,4.71875,26.09015498046875Q5.0625,26.65265498046875,4.71875,27.15265498046875ZM8,26.80885498046875Q6.71875,26.77765498046875,5.875,25.93385498046875Q5.03125,25.09010498046875,5,23.80885498046875L5,23.02760498046875Q5,21.34010498046875,4.5625,19.71510498046875Q4.5,19.37135498046875,4.6875,19.09010498046875Q4.875,18.80885498046875,5.25,18.80885498046875Q5.71875,18.84010498046875,5.875,19.27760498046875Q6.375,21.12135498046875,6.375,23.02760498046875L6.375,23.80885498046875Q6.40625,24.49635498046875,6.84375,24.96510498046875Q7.3125,25.40260498046875,8,25.43385498046875Q8.6875,25.40260498046875,9.15625,24.96510498046875Q9.59375,24.49635498046875,9.625,23.80885498046875L9.625,23.02760498046875Q9.625,21.34010498046875,9.3125,19.65260498046875Q9.25,19.30885498046875,9.4375,19.05885498046875Q9.65625,18.80885498046875,9.96875,18.80885498046875Q10.5,18.84010498046875,10.625,19.34010498046875Q11,21.15260498046875,11,23.02760498046875L11,23.80885498046875Q10.9688,25.09010498046875,10.125,25.93385498046875Q9.28125,26.77765498046875,8,26.80885498046875ZM8.75,23.80885498046875Q8.6875,24.49635498046875,8,24.55885498046875Q7.3125,24.49635498046875,7.25,23.80885498046875L7.25,23.02760498046875Q7.25,20.18385498046875,6.25,17.55885498046875L6.0625,17.09010498046875Q5.875,16.40260498046875,6.46875,16.12135498046875Q7.15625,15.93385498046875,7.4375,16.52760498046875L7.625,17.02760498046875Q8.75,19.93385498046875,8.75,23.02760498046875L8.75,23.80885498046875Z" fill="#9CA3AF" fill-opacity="1" style="mix-blend-mode:passthrough"/></g></g></g></svg>