<svg xmlns="http://www.w3.org/2000/svg" xmlns:xlink="http://www.w3.org/1999/xlink" fill="none" version="1.1" width="20" height="20" viewBox="0 0 20 20"><defs><clipPath id="master_svg0_3_7806"><rect x="0" y="0" width="20" height="20" rx="0"/></clipPath></defs><g clip-path="url(#master_svg0_3_7806)"><g transform="matrix(1,0,0,-1,0,40.8593635559082)"><g><path d="M13.58002500745058,39.4530817779541Q13.81352500745058,40.0390817779541,14.31932500745058,40.2734817779541Q14.86412500745058,40.5077817779541,15.44772500745058,40.3905817779541L18.87192500745058,39.4530817779541Q19.92252500745058,39.062481777954105,20.00032500745058,37.9296817779541Q19.96142500745058,33.0468817779541,17.62672500745058,29.101561777954103Q15.292125007450581,25.1562417779541,11.362125007450581,22.8124917779541Q7.43220500745058,20.4687442779541,2.568395007450581,20.4296817779541Q1.4399950074505805,20.5078067779541,1.0508880074505806,21.5624917779541L0.1170355074505806,24.9999917779541Q0.00030400745058059564,25.5859317779541,0.2337670074505806,26.1328017779541Q0.4672300074505806,26.640621777954102,1.0508880074505806,26.8749917779541L4.786295007450581,28.4374917779541Q5.836875007450581,28.789061777954103,6.576175007450581,27.9687417779541L8.13259500745058,26.0546817779541Q10.19482500745058,27.0312417779541,11.82912500745058,28.6328017779541Q13.42442500745058,30.2734317779541,14.397225007450581,32.3437817779541L12.49052500745058,33.9062817779541Q11.67342500745058,34.6483817779541,12.02362500745058,35.703081777954104L13.58002500745058,39.4530817779541Z" fill="#000000" fill-opacity="1" style="mix-blend-mode:passthrough"/></g></g></g></svg>