<svg xmlns="http://www.w3.org/2000/svg" xmlns:xlink="http://www.w3.org/1999/xlink" fill="none" version="1.1" width="16" height="16" viewBox="0 0 16 16"><g transform="matrix(1,0,0,-1,0,32)"><path d="M11.4688,19.09375L3.125,27.4688L11.4688,19.09375L3.125,27.4688Q2.03125,25.96875,2,24Q2.0625,21.4375,3.75,19.75Q5.4375,18.0625,8,18Q9.96875,18.03125,11.4688,19.09375ZM12.9062,20.53125Q13.9688,22.03125,14,24Q13.9375,26.5625,12.25,28.25Q10.5625,29.9375,8,30Q6.03125,29.9688,4.53125,28.875L12.9062,20.53125ZM0,24Q0.03125,26.1875,1.0625,28Q2.125,29.8125,4,30.9375Q5.90625,32,8,32Q10.0938,32,12,30.9375Q13.875,29.8125,14.9375,28Q15.9688,26.1875,16,24Q15.9688,21.8125,14.9375,20Q13.875,18.1875,12,17.0625Q10.0938,16,8,16Q5.90625,16,4,17.0625Q2.125,18.1875,1.0625,20Q0.03125,21.8125,0,24Z" fill="#000000" fill-opacity="1" style="mix-blend-mode:passthrough"/></g></svg>