<svg xmlns="http://www.w3.org/2000/svg" xmlns:xlink="http://www.w3.org/1999/xlink" fill="none" version="1.1" width="20" height="20" viewBox="0 0 20 20"><defs><clipPath id="master_svg0_3_7811"><rect x="0" y="0" width="20" height="20" rx="0"/></clipPath></defs><g clip-path="url(#master_svg0_3_7811)"><g transform="matrix(1,0,0,-1,0,40.842041015625)"><g><path d="M2.5,40.412320507812495Q1.44531,40.3733205078125,0.742188,39.6701205078125Q0.0390625,38.9670205078125,0,37.912320507812495L0,26.6623405078125Q0.0390625,25.6076505078125,0.742188,24.9045305078125Q1.44531,24.2014005078125,2.5,24.1623405078125L6.25,24.1623405078125L6.25,21.0373395078125Q6.25,20.6467145078125,6.60156,20.4904650078125Q6.95312,20.3342150078125,7.26562,20.5295275078125L12.0703,24.1623405078125L17.5,24.1623405078125Q18.5547,24.2014005078125,19.2578,24.9045305078125Q19.9609,25.6076505078125,20,26.6623405078125L20,37.912320507812495Q19.9609,38.9670205078125,19.2578,39.6701205078125Q18.5547,40.3733205078125,17.5,40.412320507812495L2.5,40.412320507812495Z" fill="#000000" fill-opacity="1" style="mix-blend-mode:passthrough"/></g></g></g></svg>