<svg xmlns="http://www.w3.org/2000/svg" xmlns:xlink="http://www.w3.org/1999/xlink" fill="none" version="1.1" width="14" height="16" viewBox="0 0 14 16"><defs><clipPath id="master_svg0_3_10534"><rect x="0" y="0" width="14" height="16" rx="0"/></clipPath></defs><g clip-path="url(#master_svg0_3_10534)"><g transform="matrix(1,0,0,-1,0,32.5)"><g><path d="M12,21.75L6,21.75L12,21.75L6,21.75Q5.53125,21.78125,5.5,22.25L5.5,30.25Q5.53125,30.7188,6,30.75L10.375,30.75L12.5,28.625L12.5,22.25Q12.4688,21.78125,12,21.75ZM6,20.25L12,20.25L6,20.25L12,20.25Q12.8438,20.28125,13.4062,20.84375Q13.9688,21.40625,14,22.25L14,28.625Q14,29.25,13.5625,29.6875L11.4375,31.8125Q11,32.25,10.375,32.25L6,32.25Q5.15625,32.2188,4.59375,31.6562Q4.03125,31.0938,4,30.25L4,22.25Q4.03125,21.40625,4.59375,20.84375Q5.15625,20.28125,6,20.25ZM2,28.25Q1.15625,28.2188,0.59375,27.6562Q0.03125,27.0938,0,26.25L0,18.25Q0.03125,17.40625,0.59375,16.84375Q1.15625,16.28125,2,16.25L8,16.25Q8.84375,16.28125,9.40625,16.84375Q9.96875,17.40625,10,18.25L10,19.25L8.5,19.25L8.5,18.25Q8.46875,17.78125,8,17.75L2,17.75Q1.53125,17.78125,1.5,18.25L1.5,26.25Q1.53125,26.7188,2,26.75L3,26.75L3,28.25L2,28.25Z" fill="#9CA3AF" fill-opacity="1" style="mix-blend-mode:passthrough"/></g></g></g></svg>