<svg xmlns="http://www.w3.org/2000/svg" xmlns:xlink="http://www.w3.org/1999/xlink" fill="none" version="1.1" width="14.65625" height="14" viewBox="0 0 14.65625 14"><defs><clipPath id="master_svg0_3_39919"><rect x="0" y="0" width="14.65625" height="14" rx="0"/></clipPath></defs><g clip-path="url(#master_svg0_3_39919)"><g transform="matrix(1,0,0,-1,0,28.60430908203125)"><g><path d="M8.121093845367431,27.811354541015625Q7.875003845367432,28.276154541015625,7.328123845367432,28.303554541015625Q6.808593845367431,28.276154541015625,6.535153845367431,27.811354541015625L4.785153845367431,24.201954541015624L0.8476558453674317,23.600394541015625Q0.32812484536743164,23.518364541015625,0.16406254536743164,23.026174541015624Q-1.546325683610128e-7,22.506644541015625,0.38281284536743165,22.123834541015626L3.2265638453674317,19.307424541015624L2.5429738453674315,15.315244541015625Q2.4882838453674316,14.795709541015626,2.8984338453674314,14.467584541015626Q3.3359338453674314,14.166803541015625,3.8281238453674318,14.412896541015625L7.328123845367432,16.272274541015626L10.855443845367432,14.412896541015625Q11.320343845367432,14.166803541015625,11.757843845367432,14.467584541015626Q12.195343845367432,14.795709541015626,12.113243845367432,15.315244541015625L11.457043845367432,19.307424541015624L14.300743845367432,22.123834541015626Q14.656243845367431,22.506644541015625,14.519543845367432,23.026174541015624Q14.328143845367432,23.518364541015625,13.808543845367431,23.600394541015625L9.871093845367431,24.201954541015624L8.121093845367431,27.811354541015625Z" fill="#000000" fill-opacity="1" style="mix-blend-mode:passthrough"/></g></g></g></svg>