<svg xmlns="http://www.w3.org/2000/svg" xmlns:xlink="http://www.w3.org/1999/xlink" fill="none" version="1.1" width="13.992218017578125" height="12.249999046325684" viewBox="0 0 13.992218017578125 12.249999046325684">
  <g transform="matrix(1,0,0,-1,0,24.499998092651367)">
    <path d="M6.99611,13.124999046325684Q8.96376,13.152343046325683,10.5215,13.890619046325684Q12.1065,14.656249046325684,13.0357,15.941409046325683Q13.9649,17.226559046325683,13.9922,18.812499046325684Q13.9649,20.398439046325684,13.0357,21.683589046325686Q12.1065,22.968699046325682,10.5215,23.734399046325684Q8.96376,24.472699046325683,6.99611,24.499999046325684Q5.02845,24.472699046325683,3.47073,23.734399046325684Q1.88567,22.968699046325682,0.956499,21.683589046325686Q0.0273286,20.398439046325684,0,18.812499046325684Q0.0273286,16.925779046325683,1.31177,15.503909046325683Q1.17513,14.492189046325684,0.710542,13.781249046325684Q0.491914,13.398439046325684,0.300614,13.207030046325684Q0.218628,13.097655046325684,0.163971,13.042968046325683Q0.163971,13.015624046325684,0.136643,13.015624046325684L0.136643,12.988280046325684Q-0.0546571,12.796874046325684,0.0273286,12.523437046325684Q0.163971,12.249999046325684,0.437257,12.249999046325684Q1.63971,12.304686546325684,2.6782,12.769530046325684Q3.6347,13.207030046325684,4.15394,13.617189046325684Q5.46571,13.124999046325684,6.99611,13.124999046325684ZM3.49805,19.687499046325684Q3.88065,19.687499046325684,4.12661,19.441409046325685Q4.37257,19.195309046325683,4.37257,18.812499046325684Q4.37257,18.429689046325684,4.12661,18.183589046325682Q3.88065,17.937499046325684,3.49805,17.937499046325684Q3.11545,17.937499046325684,2.8695,18.183589046325682Q2.62354,18.429689046325684,2.62354,18.812499046325684Q2.62354,19.195309046325683,2.8695,19.441409046325685Q3.11545,19.687499046325684,3.49805,19.687499046325684ZM6.99611,19.687499046325684Q7.37871,19.687499046325684,7.62467,19.441409046325685Q7.87062,19.195309046325683,7.87062,18.812499046325684Q7.87062,18.429689046325684,7.62467,18.183589046325682Q7.37871,17.937499046325684,6.99611,17.937499046325684Q6.61351,17.937499046325684,6.36755,18.183589046325682Q6.1216,18.429689046325684,6.1216,18.812499046325684Q6.1216,19.195309046325683,6.36755,19.441409046325685Q6.61351,19.687499046325684,6.99611,19.687499046325684ZM9.61965,18.812499046325684Q9.61965,19.195309046325683,9.86561,19.441409046325685Q10.1116,19.687499046325684,10.4942,19.687499046325684Q10.8768,19.687499046325684,11.1227,19.441409046325685Q11.3687,19.195309046325683,11.3687,18.812499046325684Q11.3687,18.429689046325684,11.1227,18.183589046325682Q10.8768,17.937499046325684,10.4942,17.937499046325684Q10.1116,17.937499046325684,9.86561,18.183589046325682Q9.61965,18.429689046325684,9.61965,18.812499046325684Z" fill="#000000" fillOpacity="1" style="mix-blend-mode:passthrough"/>
  </g>
</svg>
