<svg xmlns="http://www.w3.org/2000/svg" xmlns:xlink="http://www.w3.org/1999/xlink" fill="none" version="1.1" width="16" height="16" viewBox="0 0 16 16"><defs><clipPath id="master_svg0_3_07299"><rect x="0" y="0" width="16" height="16" rx="0"/></clipPath></defs><g clip-path="url(#master_svg0_3_07299)"><g transform="matrix(1,0,0,-1,0,30.6875)"><g><path d="M4.65625,28.31255L4.34375,27.34375L4.65625,28.31255L4.34375,27.34375L2,27.34375Q1.15625,27.31255,0.59375,26.74995Q0.03125,26.18755,0,25.34375L0,17.34375Q0.03125,16.5,0.59375,15.9375Q1.15625,15.375,2,15.34375L14,15.34375Q14.8438,15.375,15.4062,15.9375Q15.9688,16.5,16,17.34375L16,25.34375Q15.9688,26.18755,15.4062,26.74995Q14.8438,27.31255,14,27.34375L11.6562,27.34375L11.3438,28.31255Q10.9688,29.28125,9.90625,29.34375L6.09375,29.34375Q5.03125,29.28125,4.65625,28.31255ZM8,24.34375Q8.8125,24.34375,9.5,23.9375Q10.1875,23.53125,10.5938,22.84375Q11,22.125,11,21.34375Q11,20.5625,10.5938,19.84375Q10.1875,19.15625,9.5,18.75Q8.8125,18.34375,8,18.34375Q7.1875,18.34375,6.5,18.75Q5.8125,19.15625,5.40625,19.84375Q5,20.5625,5,21.34375Q5,22.125,5.40625,22.84375Q5.8125,23.53125,6.5,23.9375Q7.1875,24.34375,8,24.34375Z" fill="#9CA3AF" fill-opacity="1" style="mix-blend-mode:passthrough"/></g></g></g></svg>