<svg xmlns="http://www.w3.org/2000/svg" xmlns:xlink="http://www.w3.org/1999/xlink" fill="none" version="1.1" width="18" height="16" viewBox="0 0 18 16"><defs><clipPath id="master_svg0_3_07289"><rect x="0" y="0" width="18" height="16" rx="0"/></clipPath></defs><g clip-path="url(#master_svg0_3_07289)"><g transform="matrix(1,0,0,-1,0,30.6875)"><g><path d="M0,27.34375L18,27.34375L0,27.34375L18,27.34375Q17.9688,28.18755,17.4062,28.74995Q16.8438,29.31255,16,29.34375L2,29.34375Q1.15625,29.31255,0.59375,28.74995Q0.03125,28.18755,0,27.34375ZM0,26.34375L0,17.34375L0,26.34375L0,17.34375Q0.03125,16.5,0.59375,15.9375Q1.15625,15.375,2,15.34375L16,15.34375Q16.8438,15.375,17.4062,15.9375Q17.9688,16.5,18,17.34375L18,26.34375L0,26.34375ZM2,17.6875Q2.03125,18.375,2.5,18.84375Q2.96875,19.3125,3.65625,19.34375L7.34375,19.34375Q8.03125,19.3125,8.5,18.84375Q8.96875,18.375,9,17.6875Q8.96875,17.375,8.65625,17.34375L2.34375,17.34375Q2.03125,17.375,2,17.6875ZM5.5,24.34375Q6.625,24.3125,7.21875,23.34375Q7.78125,22.34375,7.21875,21.34375Q6.625,20.375,5.5,20.34375Q4.375,20.375,3.78125,21.34375Q3.21875,22.34375,3.78125,23.34375Q4.375,24.3125,5.5,24.34375ZM11,23.84375Q11.0312,24.3125,11.5,24.34375L15.5,24.34375Q15.9688,24.3125,16,23.84375Q15.9688,23.375,15.5,23.34375L11.5,23.34375Q11.0312,23.375,11,23.84375ZM11,21.84375Q11.0312,22.3125,11.5,22.34375L15.5,22.34375Q15.9688,22.3125,16,21.84375Q15.9688,21.375,15.5,21.34375L11.5,21.34375Q11.0312,21.375,11,21.84375ZM11,19.84375Q11.0312,20.3125,11.5,20.34375L15.5,20.34375Q15.9688,20.3125,16,19.84375Q15.9688,19.375,15.5,19.34375L11.5,19.34375Q11.0312,19.375,11,19.84375Z" fill="#9CA3AF" fill-opacity="1" style="mix-blend-mode:passthrough"/></g></g></g></svg>