<svg xmlns="http://www.w3.org/2000/svg" xmlns:xlink="http://www.w3.org/1999/xlink" fill="none" version="1.1" width="18" height="16" viewBox="0 0 18 16"><defs><clipPath id="master_svg0_3_16062"><rect x="0" y="0" width="18" height="16" rx="0"/></clipPath></defs><g clip-path="url(#master_svg0_3_16062)"><g transform="matrix(1,0,0,-1,0,30.6875)"><g><path d="M2,29.34375Q1.15625,29.31255,0.59375,28.74995Q0.03125,28.18755,0,27.34375L0,26.34375L18,26.34375L18,27.34375Q17.9688,28.18755,17.4062,28.74995Q16.8438,29.31255,16,29.34375L2,29.34375ZM18,23.34375L0,23.34375L18,23.34375L0,23.34375L0,17.34375Q0.03125,16.5,0.59375,15.9375Q1.15625,15.375,2,15.34375L16,15.34375Q16.8438,15.375,17.4062,15.9375Q17.9688,16.5,18,17.34375L18,23.34375ZM3.5,19.34375L5.5,19.34375L3.5,19.34375L5.5,19.34375Q5.96875,19.3125,6,18.84375Q5.96875,18.375,5.5,18.34375L3.5,18.34375Q3.03125,18.375,3,18.84375Q3.03125,19.3125,3.5,19.34375ZM7,18.84375Q7.03125,19.3125,7.5,19.34375L11.5,19.34375Q11.9688,19.3125,12,18.84375Q11.9688,18.375,11.5,18.34375L7.5,18.34375Q7.03125,18.375,7,18.84375Z" fill="#000000" fill-opacity="1" style="mix-blend-mode:passthrough"/></g></g></g></svg>  