<svg xmlns="http://www.w3.org/2000/svg" xmlns:xlink="http://www.w3.org/1999/xlink" fill="none" version="1.1" width="14" height="16" viewBox="0 0 14 16"><defs><clipPath id="master_svg0_3_16057"><rect x="0" y="0" width="14" height="16" rx="0"/></clipPath></defs><g clip-path="url(#master_svg0_3_16057)"><g transform="matrix(1,0,0,-1,0,30.6875)"><g><path d="M11,23.34375Q12.2812,23.375,13.125,24.21875Q13.9688,25.0625,14,26.34375Q13.9688,27.62495,13.125,28.46875Q12.2812,29.31255,11,29.34375Q9.71875,29.31255,8.875,28.46875Q8.03125,27.62495,8,26.34375Q8,26.15625,8.03125,25.96875L5.09375,24.5Q4.25,25.3125,3,25.34375Q1.71875,25.3125,0.875,24.46875Q0.03125,23.625,0,22.34375Q0.03125,21.0625,0.875,20.21875Q1.71875,19.375,3,19.34375Q4.25,19.375,5.09375,20.1875L8.03125,18.71875Q8,18.53125,8,18.34375Q8.03125,17.0625,8.875,16.21875Q9.71875,15.375,11,15.34375Q12.2812,15.375,13.125,16.21875Q13.9688,17.0625,14,18.34375Q13.9688,19.625,13.125,20.46875Q12.2812,21.3125,11,21.34375Q9.75,21.3125,8.90625,20.5L5.96875,21.96875Q6,22.15625,6,22.34375Q6,22.53125,5.96875,22.71875L8.90625,24.1875Q9.75,23.375,11,23.34375Z" fill="#000000" fill-opacity="1" style="mix-blend-mode:passthrough"/></g></g></g></svg>