<svg xmlns="http://www.w3.org/2000/svg" xmlns:xlink="http://www.w3.org/1999/xlink" fill="none" version="1.1" width="16" height="16" viewBox="0 0 16 16"><defs><clipPath id="master_svg0_3_16077"><rect x="0" y="0" width="16" height="16" rx="0"/></clipPath></defs><g clip-path="url(#master_svg0_3_16077)"><g transform="matrix(1,0,0,-1,0,32.6875)"><g><path d="M8,30.84375Q5.25,30.78125,3.40625,28.93755Q1.5625,27.09375,1.5,24.34375L1.5,23.09375Q1.4375,22.40625,0.75,22.34375Q0.0625,22.40625,0,23.09375L0,24.34375Q0.03125,26.59375,1.09375,28.37495Q2.15625,30.18755,3.96875,31.24995Q5.75,32.31255,8,32.34375Q10.25,32.31255,12.0312,31.24995Q13.8438,30.18755,14.9062,28.37495Q15.9688,26.59375,16,24.34375L16,19.84375Q15.9688,18.6875,15.1875,17.90625Q14.4062,17.125,13.25,17.09375L9.8125,17.09375Q9.375,16.375,8.5,16.34375L7.5,16.34375Q6.875,16.375,6.4375,16.78125Q6.03125,17.21875,6,17.84375Q6.03125,18.46875,6.4375,18.90625Q6.875,19.3125,7.5,19.34375L8.5,19.34375Q9.375,19.3125,9.8125,18.59375L13.25,18.59375Q13.7812,18.59375,14.125,18.96875Q14.5,19.3125,14.5,19.84375L14.5,24.34375Q14.4375,27.09375,12.5938,28.93755Q10.75,30.78125,8,30.84375ZM4.5,25.84375L5,25.84375L4.5,25.84375L5,25.84375Q5.4375,25.84375,5.71875,25.5625Q6,25.28125,6,24.84375L6,21.34375Q6,20.90625,5.71875,20.625Q5.4375,20.34375,5,20.34375L4.5,20.34375Q3.65625,20.375,3.09375,20.9375Q2.53125,21.5,2.5,22.34375L2.5,23.84375Q2.53125,24.6875,3.09375,25.25Q3.65625,25.8125,4.5,25.84375ZM11.5,25.84375Q12.3438,25.8125,12.9062,25.25Q13.4688,24.6875,13.5,23.84375L13.5,22.34375Q13.4688,21.5,12.9062,20.9375Q12.3438,20.375,11.5,20.34375L11,20.34375Q10.5625,20.34375,10.2812,20.625Q10,20.90625,10,21.34375L10,24.84375Q10,25.28125,10.2812,25.5625Q10.5625,25.84375,11,25.84375L11.5,25.84375Z" fill="#000000" fill-opacity="1" style="mix-blend-mode:passthrough"/></g></g></g></svg>