<svg xmlns="http://www.w3.org/2000/svg" xmlns:xlink="http://www.w3.org/1999/xlink" fill="none" version="1.1" width="12" height="16" viewBox="0 0 12 16"><defs><clipPath id="master_svg0_3_16072"><rect x="0" y="0" width="12" height="16" rx="0"/></clipPath></defs><g clip-path="url(#master_svg0_3_16072)"><g transform="matrix(1,0,0,-1,0,32.6875)"><g><path d="M2,32.34375Q1.15625,32.31255,0.59375,31.74995Q0.03125,31.18755,0,30.34375L0,18.34375Q0.03125,17.5,0.59375,16.9375Q1.15625,16.375,2,16.34375L10,16.34375Q10.8438,16.375,11.4062,16.9375Q11.9688,17.5,12,18.34375L12,27.34375L8,27.34375Q7.5625,27.34375,7.28125,27.62495Q7,27.90625,7,28.34375L7,32.34375L2,32.34375ZM8,32.34375L8,28.34375L8,32.34375L8,28.34375L12,28.34375L8,32.34375ZM2.5,30.34375L4.5,30.34375L2.5,30.34375L4.5,30.34375Q4.96875,30.31255,5,29.84375Q4.96875,29.37495,4.5,29.34375L2.5,29.34375Q2.03125,29.37495,2,29.84375Q2.03125,30.31255,2.5,30.34375ZM2.5,28.34375L4.5,28.34375L2.5,28.34375L4.5,28.34375Q4.96875,28.31255,5,27.84375Q4.96875,27.37495,4.5,27.34375L2.5,27.34375Q2.03125,27.37495,2,27.84375Q2.03125,28.31255,2.5,28.34375ZM4.1875,20.40625Q3.84375,19.40625,2.75,19.34375L2.5,19.34375Q2.03125,19.375,2,19.84375Q2.03125,20.3125,2.5,20.34375L2.75,20.34375Q3.125,20.375,3.25,20.6875L3.6875,22.25Q3.90625,22.8125,4.5,22.84375Q5.09375,22.8125,5.3125,22.25L5.65625,21.03125Q6.03125,21.34375,6.5,21.34375Q7.28125,21.3125,7.6875,20.625L7.8125,20.34375L9.5,20.34375Q9.96875,20.3125,10,19.84375Q9.96875,19.375,9.5,19.34375L7.5,19.34375Q7.1875,19.34375,7.0625,19.625L6.78125,20.15625Q6.6875,20.34375,6.5,20.34375Q6.3125,20.34375,6.21875,20.15625L5.9375,19.625Q5.78125,19.34375,5.46875,19.34375Q5.125,19.375,5.03125,19.6875L4.5,21.4375L4.1875,20.40625Z" fill="#000000" fill-opacity="1" style="mix-blend-mode:passthrough"/></g></g></g></svg>