<svg xmlns="http://www.w3.org/2000/svg" xmlns:xlink="http://www.w3.org/1999/xlink" fill="none" version="1.1" width="16" height="16" viewBox="0 0 16 16"><defs><clipPath id="master_svg0_3_7791"><rect x="0" y="0" width="16" height="16" rx="0"/></clipPath></defs><g clip-path="url(#master_svg0_3_7791)"><g transform="matrix(1,0,0,-1,0,30.6875)"><g><path d="M2,29.34375Q1.15625,29.31255,0.59375,28.74995Q0.03125,28.18755,0,27.34375L0,17.34375Q0.03125,16.5,0.59375,15.9375Q1.15625,15.375,2,15.34375L14,15.34375Q14.8438,15.375,15.4062,15.9375Q15.9688,16.5,16,17.34375L16,24.34375Q15.9688,25.1875,15.4062,25.74995Q14.8438,26.31255,14,26.34375L2.5,26.34375Q2.03125,26.37495,2,26.84375Q2.03125,27.31255,2.5,27.34375L14,27.34375Q14.4375,27.34375,14.7188,27.62495Q15,27.90625,15,28.34375Q15,28.78125,14.7188,29.06255Q14.4375,29.34375,14,29.34375L2,29.34375ZM13,21.84375Q13.4375,21.84375,13.7188,21.5625Q14,21.28125,14,20.84375Q14,20.40625,13.7188,20.125Q13.4375,19.84375,13,19.84375Q12.5625,19.84375,12.2812,20.125Q12,20.40625,12,20.84375Q12,21.28125,12.2812,21.5625Q12.5625,21.84375,13,21.84375Z" fill="#16BC88" fill-opacity="1" style="mix-blend-mode:passthrough"/></g></g></g></svg>