<svg width="12" height="12" viewBox="0 0 12 12" fill="none" xmlns="http://www.w3.org/2000/svg">
<g clip-path="url(#clip0_354_337)">
<path d="M2.80524 9.25005C3.13859 8.9167 3.55527 8.61113 3.97195 8.41668L4.05529 8.33335C4.13863 8.25001 4.16641 8.16667 4.16641 8.05556L4.1664 6.83329C5.3609 6.47216 6.6665 6.44438 7.83321 6.83329V8.05556C7.83321 8.22223 7.91655 8.36113 8.05544 8.3889C8.44435 8.61113 8.86103 8.9167 9.19438 9.25005C9.33327 9.38894 9.61106 9.38894 9.74995 9.25005L10.7222 8.27779C10.8611 8.13889 10.8611 7.86111 10.7222 7.72221C8.111 5.111 3.88862 5.111 1.27741 7.72221C1.13851 7.86111 1.13851 8.13889 1.27741 8.27779L2.24967 9.25005C2.38856 9.38894 2.66635 9.38894 2.80524 9.25005ZM9.88885 8L9.47216 8.41668C9.19438 8.19445 8.88881 8 8.61102 7.83333L8.61102 7.16663C9.05548 7.38887 9.49994 7.66665 9.88885 8ZM2.11077 8C2.49967 7.66665 2.94414 7.38887 3.3886 7.16663V7.83333C3.11081 8 2.80524 8.19445 2.55523 8.44446L2.11077 8Z" fill="#EF393A"/>
<path d="M6 5.5L8.5 2.91007L8.11111 2.5L6 4.68705L4.44444 3.07554L5.72222 3.07554L5.72222 2.5L3.5 2.5L3.5 4.80216L4.05556 4.80216L4.05556 3.48561L6 5.5Z" fill="#EF393A"/>
</g>
<defs>
<clipPath id="clip0_354_337">
<rect width="12" height="12" fill="white"/>
</clipPath>
</defs>
</svg>
