<svg width="16" height="16" viewBox="0 0 16 16" fill="none" xmlns="http://www.w3.org/2000/svg">
<rect width="16" height="16" rx="8" fill="#D0F3D0"/>
<path fill-rule="evenodd" clip-rule="evenodd" d="M8.61897 6.55575H4.34286C4.25193 6.55575 4.16472 6.52063 4.10042 6.45811C4.03612 6.39559 4 6.31079 4 6.22237C4 6.13396 4.03612 6.04916 4.10042 5.98664C4.16472 5.92412 4.25193 5.889 4.34286 5.889H8.61897C8.69368 5.633 8.85224 5.40768 9.07058 5.24724C9.28892 5.08681 9.55513 5 9.8288 5C10.1025 5 10.3687 5.08681 10.587 5.24724C10.8054 5.40768 10.9639 5.633 11.0386 5.889H11.6571C11.7481 5.889 11.8353 5.92412 11.8996 5.98664C11.9639 6.04916 12 6.13396 12 6.22237C12 6.31079 11.9639 6.39559 11.8996 6.45811C11.8353 6.52063 11.7481 6.55575 11.6571 6.55575H11.0382C10.9633 6.81157 10.8047 7.03668 10.5865 7.19697C10.3682 7.35725 10.1021 7.44397 9.82857 7.44397C9.55504 7.44397 9.28897 7.35725 9.07069 7.19697C8.85241 7.03668 8.69382 6.81157 8.61897 6.55575ZM9.25714 6.22237C9.25714 6.07501 9.31735 5.93369 9.42451 5.82949C9.53167 5.72528 9.67702 5.66674 9.82857 5.66674C9.98012 5.66674 10.1255 5.72528 10.2326 5.82949C10.3398 5.93369 10.4 6.07501 10.4 6.22237C10.4 6.36974 10.3398 6.51106 10.2326 6.61526C10.1255 6.71947 9.98012 6.77801 9.82857 6.77801C9.67702 6.77801 9.53167 6.71947 9.42451 6.61526C9.31735 6.51106 9.25714 6.36974 9.25714 6.22237ZM7.38149 10.1118H11.6571C11.7481 10.1118 11.8353 10.0767 11.8996 10.0141C11.9639 9.95162 12 9.86683 12 9.77841C12 9.68999 11.9639 9.60519 11.8996 9.54267C11.8353 9.48015 11.7481 9.44503 11.6571 9.44503H7.38149C7.30677 9.18903 7.14822 8.96372 6.92988 8.80328C6.71154 8.64284 6.44533 8.55603 6.17166 8.55603C5.89798 8.55603 5.63178 8.64284 5.41344 8.80328C5.1951 8.96372 5.03654 9.18903 4.96183 9.44503H4.34286C4.25193 9.44503 4.16472 9.48015 4.10042 9.54267C4.03612 9.60519 4 9.68999 4 9.77841C4 9.86683 4.03612 9.95162 4.10042 10.0141C4.16472 10.0767 4.25193 10.1118 4.34286 10.1118H4.96183C5.03668 10.3676 5.19526 10.5927 5.41354 10.753C5.63182 10.9133 5.8979 11 6.17143 11C6.44496 11 6.71103 10.9133 6.92931 10.753C7.14759 10.5927 7.30618 10.3676 7.38103 10.1118M5.6 9.77841C5.6 9.63105 5.6602 9.48972 5.76737 9.38552C5.87453 9.28132 6.01988 9.22278 6.17143 9.22278C6.32298 9.22278 6.46833 9.28132 6.57549 9.38552C6.68265 9.48972 6.74286 9.63105 6.74286 9.77841C6.74286 9.92577 6.68265 10.0671 6.57549 10.1713C6.46833 10.2755 6.32298 10.334 6.17143 10.334C6.01988 10.334 5.87453 10.2755 5.76737 10.1713C5.6602 10.0671 5.6 9.92577 5.6 9.77841Z" fill="black"/>
</svg>
