<svg width="12" height="8" viewBox="0 0 12 8" fill="none" xmlns="http://www.w3.org/2000/svg">
<path fill-rule="evenodd" clip-rule="evenodd" d="M0 0.666667C0 0.489856 0.0702379 0.320287 0.195262 0.195262C0.320286 0.070238 0.489856 0 0.666667 0H11.3333C11.5101 0 11.6797 0.070238 11.8047 0.195262C11.9298 0.320287 12 0.489856 12 0.666667C12 0.843478 11.9298 1.01305 11.8047 1.13807C11.6797 1.2631 11.5101 1.33333 11.3333 1.33333H0.666667C0.489856 1.33333 0.320286 1.2631 0.195262 1.13807C0.0702379 1.01305 0 0.843478 0 0.666667ZM1.33333 3.66667C1.33333 3.48986 1.40357 3.32029 1.5286 3.19526C1.65362 3.07024 1.82319 3 2 3H10C10.1768 3 10.3464 3.07024 10.4714 3.19526C10.5964 3.32029 10.6667 3.48986 10.6667 3.66667C10.6667 3.84348 10.5964 4.01305 10.4714 4.13807C10.3464 4.2631 10.1768 4.33333 10 4.33333H2C1.82319 4.33333 1.65362 4.2631 1.5286 4.13807C1.40357 4.01305 1.33333 3.84348 1.33333 3.66667ZM3.33333 6.66667C3.33333 6.48986 3.40357 6.32029 3.5286 6.19526C3.65362 6.07024 3.82319 6 4 6H8C8.17681 6 8.34638 6.07024 8.47141 6.19526C8.59643 6.32029 8.66667 6.48986 8.66667 6.66667C8.66667 6.84348 8.59643 7.01305 8.47141 7.13807C8.34638 7.2631 8.17681 7.33333 8 7.33333H4C3.82319 7.33333 3.65362 7.2631 3.5286 7.13807C3.40357 7.01305 3.33333 6.84348 3.33333 6.66667Z" fill="black"/>
</svg>
