<svg width="12" height="12" viewBox="0 0 12 12" fill="none" xmlns="http://www.w3.org/2000/svg">
<path d="M2 10C1.725 10 1.48967 9.90217 1.294 9.7065C1.09833 9.51083 1.00033 9.27533 1 9V3C1 2.725 1.098 2.48967 1.294 2.294C1.49 2.09833 1.72533 2.00033 2 2H8C8.275 2 8.5105 2.098 8.7065 2.294C8.9025 2.49 9.00033 2.72533 9 3V5.25L10.575 3.675C10.6583 3.59167 10.75 3.57083 10.85 3.6125C10.95 3.65417 11 3.73333 11 3.85V8.15C11 8.26667 10.95 8.34583 10.85 8.3875C10.75 8.42917 10.6583 8.40833 10.575 8.325L9 6.75V9C9 9.275 8.90217 9.5105 8.7065 9.7065C8.51083 9.9025 8.27533 10.0003 8 10H2ZM2 9H8V3H2V9Z" fill="#EF393A"/>
<path d="M5 8L7.5 5.41007L7.11111 5L5 7.18705L3.44444 5.57554H4.72222V5H2.5V7.30216H3.05556V5.98561L5 8Z" fill="#EF393A"/>
</svg>
