<svg width="22" height="22" viewBox="0 0 22 22" fill="none" xmlns="http://www.w3.org/2000/svg">
<path d="M11 22C17.0751 22 22 17.0751 22 11C22 4.92487 17.0751 0 11 0C4.92487 0 0 4.92487 0 11C0 17.0751 4.92487 22 11 22Z" fill="#FF5151"/>
<path d="M11 13.1587C10.4478 13.1587 10 12.7109 10 12.1587L10.0005 6.61475C10.0005 6.0625 10.4482 5.61475 11.0005 5.61475C11.5527 5.61475 12.0005 6.0625 12.0005 6.61475L12 12.1587C12 12.7109 11.5522 13.1587 11 13.1587Z" fill="white"/>
<path d="M11 16.3871C10.7397 16.3871 10.48 16.2773 10.29 16.0971C10.1099 15.9072 10 15.6469 10 15.3871C10 15.2573 10.0298 15.1269 10.0796 15.0073C10.1299 14.8769 10.1997 14.767 10.29 14.6772C10.5698 14.3969 11.0098 14.3071 11.3799 14.4672C11.5 14.517 11.6099 14.5873 11.71 14.6772C11.7998 14.7773 11.8696 14.8769 11.9199 15.0073C11.98 15.1269 12 15.2573 12 15.3871C12 15.6469 11.8896 15.9072 11.71 16.0971C11.6099 16.1869 11.5 16.2573 11.3799 16.3071C11.2598 16.3573 11.1299 16.3871 11 16.3871Z" fill="white"/>
</svg>
